#Comment line ignore any data following # character 
#Hierarchical Translation and Rotation (.htr) file 
[Header]	
#Header keywords are followed by a single value 
FileType HTR		#Single word string
DataType HTRS		#Translation followed by rotation and scale data
FileVersion 1		#integer
NumSegments 84		#integer
NumFrames 2		#integer
DataFrameRate 30		#integer, data frame rate in this file
EulerRotationOrder ZYX
CalibrationUnits mm
RotationUnits Degrees
GlobalAxisofGravity Y
BoneLengthAxis Y
ScaleFactor 1.00
[SegmentNames&Hierarchy]
#CHILD	PARENT
MASTER GLOBAL
root MASTER
chest root
L_mid_tent01 root
R_mid_tent01 root
spine01 root
Bip01_Neck chest
L_humerus chest
R_humerus chest
weapon_bone chest
Bip01_Head Bip01_Neck
eye_left_bone Bip01_Head
eye_right_bone Bip01_Head
L_forearm L_humerus
L_front_hand L_forearm
L_weapon_bone L_forearm
L_front_hand01_01 L_front_hand
L_front_hand02_01 L_front_hand
L_front_hand03_01 L_front_hand
L_front_hand01_02 L_front_hand01_01
L_front_hand02_02 L_front_hand02_01
L_front_hand03_02 L_front_hand03_01
R_forearm R_humerus
R_front_hand R_forearm
R_weapon_bone R_forearm
R_front_hand01_01 R_front_hand
R_front_hand02_01 R_front_hand
R_front_hand03_01 R_front_hand
R_front_hand01_02 R_front_hand01_01
R_front_hand02_02 R_front_hand02_01
R_front_hand03_02 R_front_hand03_01
null_rope01_connect L_mid_tent01
Rope1_Seg01 null_rope01_connect
Rope1_Seg02 Rope1_Seg01
Rope1_Seg03 Rope1_Seg02
Rope1_Seg04 Rope1_Seg03
Rope1_Seg05 Rope1_Seg04
Rope1_Seg06 Rope1_Seg05
Rope1_Seg07 Rope1_Seg06
Rope1_Seg09 Rope1_Seg07
L_mid_hand01 Rope1_Seg09
L_mid_hand02 Rope1_Seg09
L_mid_hand03 Rope1_Seg09
null_rope02_connect R_mid_tent01
Rope2_Seg01 null_rope02_connect
Rope2_Seg02 Rope2_Seg01
Rope2_Seg03 Rope2_Seg02
Rope2_Seg04 Rope2_Seg03
Rope2_Seg05 Rope2_Seg04
Rope2_Seg06 Rope2_Seg05
Rope2_Seg07 Rope2_Seg06
Rope2_Seg09 Rope2_Seg07
R_mid_hand01 Rope2_Seg09
R_mid_hand02 Rope2_Seg09
R_mid_hand03 Rope2_Seg09
spine02 spine01
spine03 spine02
pelvis spine03
null_rope03_connect pelvis
null_rope04_connect pelvis
Rope3_Seg01 null_rope03_connect
Rope3_Seg02 Rope3_Seg01
Rope3_Seg03 Rope3_Seg02
Rope3_Seg04 Rope3_Seg03
Rope3_Seg05 Rope3_Seg04
Rope3_Seg06 Rope3_Seg05
Rope3_Seg07 Rope3_Seg06
Rope3_Seg08 Rope3_Seg07
Rope3_Seg09 Rope3_Seg08
R_rear_hand01 Rope3_Seg09
R_rear_hand02 Rope3_Seg09
R_rear_hand03 Rope3_Seg09
Rope4_Seg01 null_rope04_connect
Rope4_Seg02 Rope4_Seg01
Rope4_Seg03 Rope4_Seg02
Rope4_Seg04 Rope4_Seg03
Rope4_Seg05 Rope4_Seg04
Rope4_Seg06 Rope4_Seg05
Rope4_Seg07 Rope4_Seg06
Rope4_Seg08 Rope4_Seg07
Rope4_Seg09 Rope4_Seg08
L_rear_hand01 Rope4_Seg09
L_rear_hand02 Rope4_Seg09
L_rear_hand03 Rope4_Seg09
[BasePosition]
#SegmentName Tx, Ty, Tz, Rx, Ry, Rz, BoneLength
MASTER 0.000000 0.000000 0.000000 -90.000000 0.000000 0.000000 10.000000 
root 0.000000 0.000000 0.000000 0.000000 0.000000 0.000000 10.000000 
chest 0.000000 0.000000 0.000000 0.000000 0.000000 0.000000 10.000000 
L_mid_tent01 0.000000 0.000000 0.000000 0.000000 0.000000 0.000000 10.000000 
R_mid_tent01 0.000000 0.000000 0.000000 0.000000 0.000000 0.000000 10.000000 
spine01 0.000000 0.000000 0.000000 0.000000 0.000000 0.000000 10.000000 
Bip01_Neck 0.000000 0.000000 0.000000 0.000000 0.000000 0.000000 10.000000 
L_humerus 0.000000 0.000000 0.000000 0.000000 0.000000 0.000000 10.000000 
R_humerus 0.000000 0.000000 0.000000 0.000000 0.000000 0.000000 10.000000 
weapon_bone 0.000000 0.000000 0.000000 0.000000 0.000000 0.000000 10.000000 
Bip01_Head 0.000000 0.000000 0.000000 0.000000 0.000000 0.000000 10.000000 
eye_left_bone 0.000000 0.000000 0.000000 0.000000 0.000000 0.000000 10.000000 
eye_right_bone 0.000000 0.000000 0.000000 0.000000 0.000000 0.000000 10.000000 
L_forearm 0.000000 0.000000 0.000000 0.000000 0.000000 0.000000 10.000000 
L_front_hand 0.000000 0.000000 0.000000 0.000000 0.000000 0.000000 10.000000 
L_weapon_bone 0.000000 0.000000 0.000000 0.000000 0.000000 0.000000 10.000000 
L_front_hand01_01 0.000000 0.000000 0.000000 0.000000 0.000000 0.000000 10.000000 
L_front_hand02_01 0.000000 0.000000 0.000000 0.000000 0.000000 0.000000 10.000000 
L_front_hand03_01 0.000000 0.000000 0.000000 0.000000 0.000000 0.000000 10.000000 
L_front_hand01_02 0.000000 0.000000 0.000000 0.000000 0.000000 0.000000 10.000000 
L_front_hand02_02 0.000000 0.000000 0.000000 0.000000 0.000000 0.000000 10.000000 
L_front_hand03_02 0.000000 0.000000 0.000000 0.000000 0.000000 0.000000 10.000000 
R_forearm 0.000000 0.000000 0.000000 0.000000 0.000000 0.000000 10.000000 
R_front_hand 0.000000 0.000000 0.000000 0.000000 0.000000 0.000000 10.000000 
R_weapon_bone 0.000000 0.000000 0.000000 0.000000 0.000000 0.000000 10.000000 
R_front_hand01_01 0.000000 0.000000 0.000000 0.000000 0.000000 0.000000 10.000000 
R_front_hand02_01 0.000000 0.000000 0.000000 0.000000 0.000000 0.000000 10.000000 
R_front_hand03_01 0.000000 0.000000 0.000000 0.000000 0.000000 0.000000 10.000000 
R_front_hand01_02 0.000000 0.000000 0.000000 0.000000 0.000000 0.000000 10.000000 
R_front_hand02_02 0.000000 0.000000 0.000000 0.000000 0.000000 0.000000 10.000000 
R_front_hand03_02 0.000000 0.000000 0.000000 0.000000 0.000000 0.000000 10.000000 
null_rope01_connect 0.000000 0.000000 0.000000 0.000000 0.000000 0.000000 10.000000 
Rope1_Seg01 0.000000 0.000000 0.000000 0.000000 0.000000 0.000000 10.000000 
Rope1_Seg02 0.000000 0.000000 0.000000 0.000000 0.000000 0.000000 10.000000 
Rope1_Seg03 0.000000 0.000000 0.000000 0.000000 0.000000 0.000000 10.000000 
Rope1_Seg04 0.000000 0.000000 0.000000 0.000000 0.000000 0.000000 10.000000 
Rope1_Seg05 0.000000 0.000000 0.000000 0.000000 0.000000 0.000000 10.000000 
Rope1_Seg06 0.000000 0.000000 0.000000 0.000000 0.000000 0.000000 10.000000 
Rope1_Seg07 0.000000 0.000000 0.000000 0.000000 0.000000 0.000000 10.000000 
Rope1_Seg09 0.000000 0.000000 0.000000 0.000000 0.000000 0.000000 10.000000 
L_mid_hand01 0.000000 0.000000 0.000000 0.000000 0.000000 0.000000 10.000000 
L_mid_hand02 0.000000 0.000000 0.000000 0.000000 0.000000 0.000000 10.000000 
L_mid_hand03 0.000000 0.000000 0.000000 0.000000 0.000000 0.000000 10.000000 
null_rope02_connect 0.000000 0.000000 0.000000 0.000000 0.000000 0.000000 10.000000 
Rope2_Seg01 0.000000 0.000000 0.000000 0.000000 0.000000 0.000000 10.000000 
Rope2_Seg02 0.000000 0.000000 0.000000 0.000000 0.000000 0.000000 10.000000 
Rope2_Seg03 0.000000 0.000000 0.000000 0.000000 0.000000 0.000000 10.000000 
Rope2_Seg04 0.000000 0.000000 0.000000 0.000000 0.000000 0.000000 10.000000 
Rope2_Seg05 0.000000 0.000000 0.000000 0.000000 0.000000 0.000000 10.000000 
Rope2_Seg06 0.000000 0.000000 0.000000 0.000000 0.000000 0.000000 10.000000 
Rope2_Seg07 0.000000 0.000000 0.000000 0.000000 0.000000 0.000000 10.000000 
Rope2_Seg09 0.000000 0.000000 0.000000 0.000000 0.000000 0.000000 10.000000 
R_mid_hand01 0.000000 0.000000 0.000000 0.000000 0.000000 0.000000 10.000000 
R_mid_hand02 0.000000 0.000000 0.000000 0.000000 0.000000 0.000000 10.000000 
R_mid_hand03 0.000000 0.000000 0.000000 0.000000 0.000000 0.000000 10.000000 
spine02 0.000000 0.000000 0.000000 0.000000 0.000000 0.000000 10.000000 
spine03 0.000000 0.000000 0.000000 0.000000 0.000000 0.000000 10.000000 
pelvis 0.000000 0.000000 0.000000 0.000000 0.000000 0.000000 10.000000 
null_rope03_connect 0.000000 0.000000 0.000000 0.000000 0.000000 0.000000 10.000000 
null_rope04_connect 0.000000 0.000000 0.000000 0.000000 0.000000 0.000000 10.000000 
Rope3_Seg01 0.000000 0.000000 0.000000 0.000000 0.000000 0.000000 10.000000 
Rope3_Seg02 0.000000 0.000000 0.000000 0.000000 0.000000 0.000000 10.000000 
Rope3_Seg03 0.000000 0.000000 0.000000 0.000000 0.000000 0.000000 10.000000 
Rope3_Seg04 0.000000 0.000000 0.000000 0.000000 0.000000 0.000000 10.000000 
Rope3_Seg05 0.000000 0.000000 0.000000 0.000000 0.000000 0.000000 10.000000 
Rope3_Seg06 0.000000 0.000000 0.000000 0.000000 0.000000 0.000000 10.000000 
Rope3_Seg07 0.000000 0.000000 0.000000 0.000000 0.000000 0.000000 10.000000 
Rope3_Seg08 0.000000 0.000000 0.000000 0.000000 0.000000 0.000000 10.000000 
Rope3_Seg09 0.000000 0.000000 0.000000 0.000000 0.000000 0.000000 10.000000 
R_rear_hand01 0.000000 0.000000 0.000000 0.000000 0.000000 0.000000 10.000000 
R_rear_hand02 0.000000 0.000000 0.000000 0.000000 0.000000 0.000000 10.000000 
R_rear_hand03 0.000000 0.000000 0.000000 0.000000 0.000000 0.000000 10.000000 
Rope4_Seg01 0.000000 0.000000 0.000000 0.000000 0.000000 0.000000 10.000000 
Rope4_Seg02 0.000000 0.000000 0.000000 0.000000 0.000000 0.000000 10.000000 
Rope4_Seg03 0.000000 0.000000 0.000000 0.000000 0.000000 0.000000 10.000000 
Rope4_Seg04 0.000000 0.000000 0.000000 0.000000 0.000000 0.000000 10.000000 
Rope4_Seg05 0.000000 0.000000 0.000000 0.000000 0.000000 0.000000 10.000000 
Rope4_Seg06 0.000000 0.000000 0.000000 0.000000 0.000000 0.000000 10.000000 
Rope4_Seg07 0.000000 0.000000 0.000000 0.000000 0.000000 0.000000 10.000000 
Rope4_Seg08 0.000000 0.000000 0.000000 0.000000 0.000000 0.000000 10.000000 
Rope4_Seg09 0.000000 0.000000 0.000000 0.000000 0.000000 0.000000 10.000000 
L_rear_hand01 0.000000 0.000000 0.000000 0.000000 0.000000 0.000000 10.000000 
L_rear_hand02 0.000000 0.000000 0.000000 0.000000 0.000000 0.000000 10.000000 
L_rear_hand03 0.000000 0.000000 0.000000 0.000000 0.000000 0.000000 10.000000 
#Beginning of Data. Separated by tabs
#Fr	Tx	Ty	Tz	Rx	Ry	Rz	SF
[MASTER]
1 0.000003 0.000000 0.000000 0.001660 0.001660 0.001660 0.000003
2 -175.287628 157.950165 55.063683 0.001660 0.001660 0.001660 242.293259
[root]
1 -16.502304 9.364137 1448.320068 -91.728889 -11.584497 -89.471619 1448.444336
2 -16.502304 3.729448 1492.103760 -95.047943 -12.536304 -86.395607 1492.199829
[chest]
1 -84.512650 -34.090519 0.000000 -2.170494 -0.006436 168.239609 91.129311
2 -84.512650 -34.090519 0.000000 -1.664842 0.524372 167.983963 91.129311
[L_mid_tent01]
1 27.299080 22.179106 -249.918701 -20.661392 12.026043 12.983022 252.381683
2 27.299076 22.179104 -249.918701 -19.120340 17.993671 22.247026 252.381683
[R_mid_tent01]
1 23.228794 24.509907 226.238495 -165.192200 -17.956036 24.056787 228.744751
2 23.228794 24.509907 226.238495 -168.480103 -21.387028 30.202496 228.744751
[spine01]
1 -0.361383 -0.195265 0.000000 0.001947 0.001312 22.051847 0.410763
2 -0.361383 -0.195265 0.000000 0.001948 0.001310 22.159370 0.410763
[Bip01_Neck]
1 165.484543 71.581718 0.000119 176.643677 -1.657967 43.431911 180.302734
2 165.484543 71.581718 0.000119 176.643677 -1.657967 43.431915 180.302734
[L_humerus]
1 -13.983130 -135.272980 -120.471481 -5.480129 68.873367 84.573456 181.680161
2 -13.983130 -135.272980 -120.471481 -11.316989 74.271614 81.520973 181.680161
[R_humerus]
1 -13.983309 -135.273102 125.287651 27.897165 -69.888802 67.752319 184.909012
2 -13.983309 -135.273102 125.287651 40.614624 -74.811417 57.880070 184.909012
[weapon_bone]
1 235.964890 -300.705902 0.000000 0.000000 -89.951546 -128.212341 382.234833
2 235.964890 -300.705902 0.000000 0.000000 -89.951546 -128.212341 382.234833
[Bip01_Head]
1 213.444199 185.715561 11.776955 4.962490 2.797846 -43.898743 283.173798
2 213.443741 185.716934 11.759218 4.962490 2.797846 -43.898750 283.173615
[eye_left_bone]
1 -24.626970 125.451866 -64.772606 0.000000 -90.000000 -99.840431 143.318359
2 -24.626970 125.451866 -64.772606 0.000000 -90.000000 -99.840431 143.318359
[eye_right_bone]
1 -24.626970 125.451866 64.327362 0.000000 -89.965736 80.156380 143.117676
2 -24.626970 125.451866 64.327362 0.000000 -89.965736 80.156380 143.117676
[L_forearm]
1 322.776093 0.000000 -0.000119 0.000396 -0.002314 -109.419975 322.776093
2 322.776093 0.000000 -0.000119 0.000425 -0.002308 -110.855713 322.776093
[L_front_hand]
1 241.149185 -0.042021 -3.300071 -178.667953 -1.835447 -27.422350 241.171753
2 241.149185 -0.042021 -3.300071 -178.590210 -1.775268 -29.929670 241.171753
[L_weapon_bone]
1 156.183838 0.000000 0.000000 0.000014 0.000007 0.000001 156.183838
2 156.183838 0.000000 0.000000 0.000014 0.000007 0.000001 156.183838
[L_front_hand01_01]
1 86.095154 20.947098 -0.655860 -0.366594 -0.477154 75.385574 88.609184
2 86.095154 20.947098 -0.655860 -0.366594 -0.477154 75.385582 88.609184
[L_front_hand02_01]
1 86.935165 -11.437475 24.513514 154.399796 -59.883835 -61.369587 91.046425
2 86.935165 -11.437475 24.513514 154.399796 -59.883835 -61.369587 91.046425
[L_front_hand03_01]
1 86.637497 -14.123976 -20.424902 -153.913849 58.118122 -62.702866 90.126129
2 86.637497 -14.123976 -20.424902 -153.913849 58.118122 -62.702866 90.126129
[L_front_hand01_02]
1 71.020905 -0.000179 0.000030 0.000329 -0.002324 -106.101456 71.020905
2 71.020905 -0.000179 0.000030 0.000328 -0.002324 -106.062531 71.020905
[L_front_hand02_02]
1 71.020927 -0.000119 0.000060 0.000329 -0.002324 -106.101456 71.020927
2 71.020927 -0.000119 0.000060 0.000328 -0.002324 -106.062531 71.020927
[L_front_hand03_02]
1 71.020905 -0.000060 0.000060 0.000329 -0.002324 -106.101456 71.020905
2 71.020905 -0.000060 0.000060 0.000328 -0.002324 -106.062531 71.020905
[R_forearm]
1 322.776428 -0.000060 0.000030 0.202103 0.065158 -108.062805 322.776428
2 322.776428 -0.000060 0.000030 0.201420 0.067237 -109.243912 322.776428
[R_front_hand]
1 238.847015 -0.006795 2.210259 -2.635298 -10.645461 -26.312506 238.857239
2 238.847015 -0.006795 2.210259 -2.082062 -10.765116 -29.275591 238.857239
[R_weapon_bone]
1 155.664093 0.002503 -0.000030 0.003487 0.001180 -90.988930 155.664078
2 155.664093 0.002503 -0.000030 0.003487 0.001180 -90.988914 155.664078
[R_front_hand01_01]
1 87.624611 14.231146 22.918642 -154.633499 -59.950619 61.746044 91.683487
2 87.624611 14.231146 22.918642 -154.633484 -59.950619 61.746037 91.683487
[R_front_hand02_01]
1 89.356956 14.367283 -19.491137 154.602661 58.302849 63.744389 92.579636
2 89.356956 14.367283 -19.491137 154.602661 58.302849 63.744389 92.579636
[R_front_hand03_01]
1 87.286232 -22.307278 -0.143439 0.162155 -0.423168 -75.767921 90.091743
2 87.286232 -22.307278 -0.143439 0.162155 -0.423168 -75.767906 90.091743
[R_front_hand01_02]
1 71.020905 0.000060 0.000119 0.002323 -0.000334 106.381714 71.020905
2 71.020905 0.000060 0.000119 0.002323 -0.000334 106.381714 71.020905
[R_front_hand02_02]
1 71.020844 -0.000030 -0.000119 0.002323 -0.000334 106.381714 71.020836
2 71.020844 -0.000030 -0.000119 0.002323 -0.000334 106.381714 71.020836
[R_front_hand03_02]
1 71.020905 0.000000 0.000030 0.002323 -0.000334 106.381714 71.020905
2 71.020905 0.000000 0.000030 0.002323 -0.000334 106.381714 71.020905
[null_rope01_connect]
1 328.732483 0.000000 -0.000238 -154.483337 -64.791321 -118.914307 328.732483
2 328.732483 0.000000 -0.000238 -156.484299 -60.778629 -125.021767 328.732483
[Rope1_Seg01]
1 0.000000 -0.000038 0.000153 45.390945 3.412457 -121.543884 0.000157
2 -0.000001 -0.000037 0.000153 68.788101 -3.434895 -111.567261 0.000157
[Rope1_Seg02]
1 139.999863 -0.000179 0.000000 8.902733 4.080219 2.692289 139.999863
2 139.999863 -0.000179 0.000000 -2.745871 1.738678 -3.944486 139.999863
[Rope1_Seg03]
1 139.999924 0.000060 -0.000060 6.731835 4.532318 0.992250 139.999924
2 139.999924 0.000060 -0.000060 -8.809302 -0.251903 -7.991458 139.999924
[Rope1_Seg04]
1 139.999924 -0.000060 -0.000119 6.934170 5.369853 0.981986 139.999924
2 139.999924 -0.000060 -0.000119 7.101609 5.495991 1.335152 139.999924
[Rope1_Seg05]
1 139.999832 0.000119 -0.000060 12.843256 5.196174 6.797475 139.999832
2 139.999832 0.000119 -0.000060 21.779770 9.460198 11.706363 139.999832
[Rope1_Seg06]
1 139.999954 0.000119 -0.000060 6.730282 3.208039 3.129677 139.999954
2 139.999954 0.000119 -0.000060 7.234668 5.205392 2.474096 139.999954
[Rope1_Seg07]
1 139.999985 0.000060 0.000000 3.271842 1.937620 1.170416 139.999985
2 139.999985 0.000060 0.000000 3.887342 3.311691 1.054707 139.999985
[Rope1_Seg09]
1 121.602913 0.000119 -0.000089 -89.793175 -1.359789 0.847147 121.602913
2 121.602913 0.000119 -0.000089 -89.793175 -1.359789 0.847147 121.602913
[L_mid_hand01]
1 103.859421 1.038730 8.195221 122.491409 -62.517220 -29.998974 104.187431
2 103.859421 1.038730 8.195221 124.819580 -64.267235 -32.597427 104.187431
[L_mid_hand02]
1 105.572853 -4.139662 -10.864139 -163.295013 41.893867 -65.202042 106.211075
2 105.572853 -4.139662 -10.864139 -165.125824 42.469841 -67.932709 106.211075
[L_mid_hand03]
1 104.641464 17.579376 -3.913581 -7.977071 17.043644 68.353111 106.179977
2 104.641464 17.579376 -3.913581 -7.329667 17.320337 70.532539 106.179977
[null_rope02_connect]
1 328.732849 0.000179 -0.000119 -140.208786 68.099197 -35.150627 328.732849
2 328.732849 0.000179 -0.000119 -124.322029 67.146721 -13.515139 328.732849
[Rope2_Seg01]
1 0.000038 0.000114 0.000000 23.916245 12.366664 -42.742737 0.000121
2 0.000039 0.000118 0.000003 24.281639 8.555588 -42.548737 0.000124
[Rope2_Seg02]
1 139.999741 -0.000060 -0.000119 -24.002098 -11.205294 -8.883082 139.999756
2 139.999741 -0.000060 -0.000119 -19.398996 -2.262419 -11.935299 139.999756
[Rope2_Seg03]
1 140.000107 0.000030 0.000000 -19.636181 -6.980632 -7.254023 140.000107
2 140.000107 0.000030 0.000000 -5.299933 3.345533 -5.732605 140.000107
[Rope2_Seg04]
1 139.999802 0.000000 -0.000060 -15.181653 1.207055 -10.476809 139.999802
2 139.999802 0.000000 -0.000060 -15.767313 -0.209477 -16.639360 139.999802
[Rope2_Seg05]
1 139.999985 -0.000060 0.000119 -4.784152 8.811499 -8.008433 139.999985
2 139.999985 -0.000060 0.000119 -10.533263 2.238704 -15.891639 139.999985
[Rope2_Seg06]
1 139.999893 -0.000030 -0.000119 -1.676171 4.450794 -3.796396 139.999893
2 139.999893 -0.000030 -0.000119 -2.963270 2.391389 -6.263592 139.999893
[Rope2_Seg07]
1 139.999893 0.000060 -0.000060 -0.916470 2.442643 -2.219415 139.999893
2 139.999893 0.000060 -0.000060 -1.471311 1.631853 -3.695242 139.999893
[Rope2_Seg09]
1 121.338966 0.000089 -0.000060 33.793236 -1.359788 -0.847141 121.338966
2 121.338966 0.000089 -0.000060 33.793236 -1.359788 -0.847141 121.338966
[R_mid_hand01]
1 104.680779 11.144459 -10.335981 -21.814814 43.253063 62.439850 105.778534
2 104.680779 11.144459 -10.335981 -20.005522 43.977985 65.062431 105.778534
[R_mid_hand02]
1 104.070427 2.443552 8.231699 57.026505 -62.880825 30.539303 104.424065
2 104.070427 2.443552 8.231699 54.725475 -64.563515 33.105427 104.424065
[R_mid_hand03]
1 106.028137 -11.221827 -5.996406 -175.434525 15.155500 -70.298363 106.788818
2 106.028137 -11.221827 -5.996406 -175.984314 15.307883 -72.395805 106.788818
[spine02]
1 129.756927 0.001550 0.000119 0.360061 -4.044797 -12.915058 129.756927
2 129.756927 0.001550 0.000119 0.230883 -4.185226 -10.866267 129.756927
[spine03]
1 78.614044 0.081787 -4.898996 1.896495 3.831288 16.473045 78.766579
2 78.614044 0.081784 -4.898995 1.834303 4.114265 15.207579 78.766579
[pelvis]
1 169.435242 0.051022 0.000000 -0.060465 -0.180225 14.087930 169.435257
2 169.435242 0.051022 0.000000 -0.031710 -0.084612 11.509859 169.435257
[null_rope03_connect]
1 -1.257226 -2.466202 137.391083 156.329987 -89.381348 -94.430771 137.418976
2 -1.257226 -2.466202 137.391083 149.569183 -85.369675 -84.880798 137.418976
[null_rope04_connect]
1 -1.259640 -2.480268 -137.844437 156.329987 -89.381348 -94.430771 137.872513
2 -1.259640 -2.480268 -137.844437 149.569183 -85.369675 -84.880798 137.872513
[Rope3_Seg01]
1 0.000000 0.000000 0.000000 15.891605 22.366524 -83.927475 0.000000
2 0.000000 0.000000 0.000000 16.282349 16.135477 -82.671227 0.000000
[Rope3_Seg02]
1 139.999924 -0.000119 0.000060 0.026975 0.025781 2.593425 139.999924
2 139.999924 -0.000119 0.000060 0.168092 2.727688 4.077979 139.999924
[Rope3_Seg03]
1 139.999924 -0.000119 0.000119 -0.097428 -0.163551 3.553374 139.999924
2 139.999924 -0.000119 0.000119 -0.079537 1.803422 5.849477 139.999924
[Rope3_Seg04]
1 139.999924 0.000119 0.000000 -0.448335 -0.439028 5.034836 139.999924
2 139.999924 0.000119 0.000000 -0.191021 2.458445 6.020629 139.999924
[Rope3_Seg05]
1 139.999924 -0.000238 0.000060 0.631991 1.505482 -5.155603 139.999924
2 139.999924 -0.000238 0.000060 3.114414 9.642033 -6.114027 139.999924
[Rope3_Seg06]
1 139.999893 -0.000119 -0.000060 0.644204 1.545632 -6.720366 139.999893
2 139.999893 -0.000119 -0.000060 2.380639 5.812144 -4.787510 139.999893
[Rope3_Seg07]
1 139.999771 0.000060 -0.000119 0.497175 0.731959 -2.977841 139.999771
2 139.999771 0.000060 -0.000119 1.578571 3.244960 -2.333847 139.999771
[Rope3_Seg08]
1 139.999985 -0.000060 0.000000 0.493722 0.450145 -1.915451 139.999985
2 139.999985 -0.000060 0.000000 1.202882 1.961389 -1.496422 139.999985
[Rope3_Seg09]
1 90.185997 -0.000179 -0.000060 89.793228 -1.359877 -0.847183 90.185997
2 90.185997 -0.000179 -0.000060 89.793228 -1.359877 -0.847183 90.185997
[R_rear_hand01]
1 103.366196 -6.073594 -10.757982 175.652573 -15.530208 -70.263191 104.101845
2 103.366196 -6.073594 -10.757982 174.719894 -15.399787 -71.994514 104.101845
[R_rear_hand02]
1 100.509819 12.039542 -7.992327 -17.440544 35.165932 64.409729 101.543350
2 100.509819 12.039542 -7.992327 -15.958945 35.791550 66.963280 101.543350
[R_rear_hand03]
1 101.539970 5.215704 5.435467 76.143005 -65.573051 16.525120 101.819031
2 101.539970 5.215704 5.435467 74.885956 -67.678215 17.894732 101.819031
[Rope4_Seg01]
1 -0.000019 0.000000 -0.000153 -108.828339 26.650826 -121.101372 0.000154
2 -0.000019 -0.000006 -0.000153 -106.034088 23.035446 -117.786461 0.000154
[Rope4_Seg02]
1 139.999985 0.000060 0.000119 0.202771 -5.145263 -2.601827 139.999985
2 139.999985 0.000060 0.000119 0.059092 -4.054223 -1.762268 139.999985
[Rope4_Seg03]
1 139.999924 0.000000 -0.000238 0.362246 -7.761212 -3.924884 139.999924
2 139.999924 0.000000 -0.000238 0.149721 -6.132100 -2.671195 139.999924
[Rope4_Seg04]
1 139.999985 0.000000 0.000119 2.694257 -22.506220 -13.850232 139.999985
2 139.999985 0.000000 0.000119 2.079595 -20.038601 -11.721424 139.999985
[Rope4_Seg05]
1 139.999802 -0.000060 -0.000119 0.807123 -4.565642 0.157579 139.999802
2 139.999802 -0.000060 -0.000119 1.080224 1.420328 5.512481 139.999802
[Rope4_Seg06]
1 139.999924 0.000000 0.000060 4.167541 22.261099 17.265369 139.999924
2 139.999924 0.000000 0.000060 2.508839 18.906422 15.123492 139.999924
[Rope4_Seg07]
1 139.999802 0.000000 0.000000 0.087750 6.074379 4.702738 139.999802
2 139.999802 0.000000 0.000000 -0.203251 4.880605 4.256089 139.999802
[Rope4_Seg08]
1 139.999924 0.000000 0.000119 -1.633175 3.019025 2.373377 139.999924
2 139.999924 0.000000 0.000119 -1.772908 2.579997 2.277335 139.999924
[Rope4_Seg09]
1 90.185791 0.000060 0.000060 -135.617828 2.228885 0.850567 90.185791
2 90.185791 0.000060 0.000060 -135.617828 2.228885 0.850567 90.185791
[L_rear_hand01]
1 101.696655 -8.392275 -7.654577 -17.501701 -35.138012 115.701401 102.329041
2 101.696655 -8.392275 -7.654577 -16.003159 -35.771038 113.113571 102.329041
[L_rear_hand02]
1 102.726799 -1.568258 5.773216 76.184814 65.478874 163.526367 102.900848
2 102.726799 -1.568258 5.773216 74.920189 67.616348 162.147324 102.900848
[L_rear_hand03]
1 104.552910 9.721220 -10.420293 -174.728683 -24.129618 -113.309677 105.519653
2 104.552910 9.721220 -10.420293 -175.722000 -24.314543 -110.899895 105.519653
